<mxfile host="app.diagrams.net" modified="2021-12-19T06:40:30.711Z" agent="5.0 (Windows NT 10.0; Win64; x64) AppleWebKit/537.36 (KHTML, like Gecko) Chrome/95.0.4638.69 Safari/537.36" etag="XD_QGyWnvwdOmWSsc6Wd" version="16.0.0" type="github">
  <diagram id="9VYlf7xLoxBSczJYT-ze" name="Page-1">
    <mxGraphModel dx="813" dy="435" grid="1" gridSize="10" guides="1" tooltips="1" connect="1" arrows="1" fold="1" page="1" pageScale="1" pageWidth="827" pageHeight="1169" math="0" shadow="0">
      <root>
        <mxCell id="0" />
        <mxCell id="1" parent="0" />
        <mxCell id="5JS05ig_G60j2r-XplZq-1" value="&lt;font style=&quot;font-size: 20px&quot;&gt;a&lt;/font&gt;" style="text;html=1;strokeColor=none;fillColor=none;align=center;verticalAlign=middle;whiteSpace=wrap;rounded=0;" vertex="1" parent="1">
          <mxGeometry x="140" y="160" width="60" height="30" as="geometry" />
        </mxCell>
        <mxCell id="5JS05ig_G60j2r-XplZq-2" value="5" style="rounded=0;whiteSpace=wrap;html=1;fontSize=20;fillColor=#d5e8d4;strokeColor=#82b366;" vertex="1" parent="1">
          <mxGeometry x="440" y="160" width="160" height="40" as="geometry" />
        </mxCell>
        <mxCell id="5JS05ig_G60j2r-XplZq-3" value="&lt;span&gt;140735232939920&lt;/span&gt;" style="text;html=1;strokeColor=none;fillColor=none;align=center;verticalAlign=middle;whiteSpace=wrap;rounded=0;fontSize=20;" vertex="1" parent="1">
          <mxGeometry x="310" y="165" width="60" height="30" as="geometry" />
        </mxCell>
        <mxCell id="5JS05ig_G60j2r-XplZq-6" value="..." style="rounded=0;whiteSpace=wrap;html=1;fontSize=20;fillColor=#d5e8d4;strokeColor=#82b366;" vertex="1" parent="1">
          <mxGeometry x="440" y="120" width="160" height="40" as="geometry" />
        </mxCell>
        <mxCell id="5JS05ig_G60j2r-XplZq-7" value="..." style="rounded=0;whiteSpace=wrap;html=1;fontSize=20;fillColor=#d5e8d4;strokeColor=#82b366;" vertex="1" parent="1">
          <mxGeometry x="440" y="80" width="160" height="40" as="geometry" />
        </mxCell>
        <mxCell id="5JS05ig_G60j2r-XplZq-8" value="..." style="rounded=0;whiteSpace=wrap;html=1;fontSize=20;fillColor=#d5e8d4;strokeColor=#82b366;" vertex="1" parent="1">
          <mxGeometry x="440" y="200" width="160" height="40" as="geometry" />
        </mxCell>
        <mxCell id="5JS05ig_G60j2r-XplZq-9" value="..." style="rounded=0;whiteSpace=wrap;html=1;fontSize=20;fillColor=#d5e8d4;strokeColor=#82b366;" vertex="1" parent="1">
          <mxGeometry x="440" y="240" width="160" height="40" as="geometry" />
        </mxCell>
        <mxCell id="5JS05ig_G60j2r-XplZq-10" value="&lt;span&gt;140735232939920&lt;/span&gt;" style="text;html=1;strokeColor=none;fillColor=none;align=center;verticalAlign=middle;whiteSpace=wrap;rounded=0;fontSize=20;" vertex="1" parent="1">
          <mxGeometry x="310" y="125" width="60" height="30" as="geometry" />
        </mxCell>
        <mxCell id="5JS05ig_G60j2r-XplZq-11" value="&lt;span&gt;140735232939920&lt;/span&gt;" style="text;html=1;strokeColor=none;fillColor=none;align=center;verticalAlign=middle;whiteSpace=wrap;rounded=0;fontSize=20;" vertex="1" parent="1">
          <mxGeometry x="310" y="85" width="60" height="30" as="geometry" />
        </mxCell>
        <mxCell id="5JS05ig_G60j2r-XplZq-12" value="&lt;span&gt;140735232939920&lt;/span&gt;" style="text;html=1;strokeColor=none;fillColor=none;align=center;verticalAlign=middle;whiteSpace=wrap;rounded=0;fontSize=20;" vertex="1" parent="1">
          <mxGeometry x="310" y="205" width="60" height="30" as="geometry" />
        </mxCell>
        <mxCell id="5JS05ig_G60j2r-XplZq-13" value="&lt;span&gt;140735232939920&lt;/span&gt;" style="text;html=1;strokeColor=none;fillColor=none;align=center;verticalAlign=middle;whiteSpace=wrap;rounded=0;fontSize=20;" vertex="1" parent="1">
          <mxGeometry x="310" y="245" width="60" height="30" as="geometry" />
        </mxCell>
      </root>
    </mxGraphModel>
  </diagram>
</mxfile>
